<?xml version="1.0" encoding="UTF-8"?>
<svg width="42px" height="42px" viewBox="0 0 42 42" version="1.1" xmlns="http://www.w3.org/2000/svg" xmlns:xlink="http://www.w3.org/1999/xlink">
    <!-- Generator: Sketch 56.3 (81716) - https://sketch.com -->
    <title>feng</title>
    <desc>Created with Sketch.</desc>
    <g id="feng" stroke="none" stroke-width="1" fill="none" fill-rule="evenodd">
        <g transform="translate(7.000000, 10.000000)" fill="#00FFF6" fill-rule="nonzero" id="形状">
            <path d="M23.8692308,11.9082569 L0.780769228,11.9082569 C0.334615373,11.9082569 7.10542736e-15,11.5045871 7.10542736e-15,11.1009174 C7.10542736e-15,10.6972477 0.334615373,10.293578 0.780769228,10.293578 L23.8692308,10.293578 C25.7653846,10.293578 27.3269231,8.77981653 27.3269231,6.86238532 C27.3269231,4.9449541 25.7653846,3.43119265 23.8692308,3.43119267 C22.3076923,3.43119267 20.8576923,4.54128442 20.5230769,6.05504587 C20.4115385,6.45871561 19.9653846,6.76146789 19.5192308,6.66055046 C19.0730769,6.55963303 18.85,6.1559633 18.9615385,5.65137614 C19.5192308,3.43119265 21.5269231,1.81651376 23.8692308,1.81651376 C26.6576923,1.81651376 29,4.03669726 29,6.86238532 C29,9.58715595 26.7692308,11.9082569 23.8692308,11.9082569 Z M11.2653846,8.47706422 L0.892307685,8.47706422 C0.446153831,8.47706422 0,8.07339449 0,7.66972476 C0,7.26605503 0.334615373,6.86238532 0.892307685,6.86238532 L11.3769231,6.86238532 C12.9384615,6.86238532 14.1653846,5.65137614 14.1653846,4.23853211 C14.1653846,2.82568808 12.9384615,1.61467891 11.3769231,1.61467891 C10.2615385,1.61467891 9.25769232,2.22018349 8.81153847,3.12844036 C8.58846155,3.5321101 8.1423077,3.73394495 7.69615384,3.5321101 C7.24999999,3.33027524 7.02692307,2.92660551 7.25000001,2.52293578 C8.03076924,1.00917432 9.59230769,0 11.3769231,0 C13.8307693,0 15.95,1.91743119 15.95,4.23853211 C15.8384615,6.66055046 13.7192308,8.47706422 11.2653846,8.47706422 Z M0.780769228,13.5229358 L17.2884615,13.5229358 C19.6307692,13.5229358 21.5269231,15.440367 21.5269231,17.7614679 C21.5269231,20.0825688 19.6307692,22 17.2884615,22 C15.6153846,22 14.0538461,20.9908257 13.3846154,19.4770642 C13.1615385,19.0733945 13.3846154,18.5688073 13.8307692,18.4678899 C14.2769231,18.266055 14.7230769,18.4678899 14.8346154,18.8715596 C15.2807693,19.7798165 16.1730769,20.3853211 17.2884615,20.3853211 C18.7384615,20.3853211 19.9653846,19.1743119 19.9653846,17.7614679 C19.9653846,16.3486239 18.7384615,15.1376147 17.2884615,15.1376147 L0.780769228,15.1376147 C0.334615373,15.1376147 7.10542736e-15,14.7339449 7.10542736e-15,14.3302752 C7.10542736e-15,13.9266055 0.334615373,13.5229358 0.780769228,13.5229358 Z"></path>
        </g>
    </g>
</svg>