<?xml version="1.0" encoding="UTF-8"?>
<svg width="42px" height="42px" viewBox="0 0 42 42" version="1.1" xmlns="http://www.w3.org/2000/svg" xmlns:xlink="http://www.w3.org/1999/xlink">
    <!-- Generator: Sketch 56.3 (81716) - https://sketch.com -->
    <title>leida</title>
    <desc>Created with Sketch.</desc>
    <g id="leida" stroke="none" stroke-width="1" fill="none" fill-rule="evenodd">
        <g transform="translate(7.000000, 6.000000)" fill="#00FFF6" fill-rule="nonzero" id="形状结合">
            <path d="M16.5538298,13.3429787 L15.8762766,14 L15.125,13.2714894 L15.8025532,12.6144681 C15.6621277,12.3642553 15.5848936,12.08 15.5848936,11.7770213 C15.5848936,10.7965957 16.406383,10 17.4174468,10 C18.4285106,10 19.25,10.7965957 19.25,11.7770213 C19.25,12.7574468 18.4285106,13.5540426 17.4174468,13.5540426 C17.105,13.5540426 16.8118617,13.4774468 16.5538298,13.3429787 Z M6.58808569,19.3333333 C7.15303683,19.9543004 7.78041352,20.5475007 8.47333703,21.1053614 C10.8299012,23.0111751 13.6577782,24.338934 16.5324744,24.9018432 L17.875,25.047619 C17.875,25.047619 17.875,27.2254214 17.875,27.3333333 L2.75,27.3333333 C2.75,27.3333333 2.75,26.1904762 2.75,26.1904762 L6.58808569,19.3333333 Z M0,28.6666667 L22,28.6666667 L22,30 L0,30 L0,28.6666667 Z M7.09517853,8.11764706 L22.2352941,21.9959224 C20.8977794,22.8805329 19.091445,23.1939378 17.0507008,22.8830604 C14.5659569,22.5014141 12.0536353,21.2477946 9.98255577,19.3496732 C7.9114762,17.4515518 6.54086829,15.1515644 6.12720393,12.8692693 C5.78799915,11.0014774 6.13271945,9.34346449 7.09517853,8.11764706 Z M17.7626845,4.05882353 C21.717674,4.05882353 24.9411765,7.27612695 24.9411765,11.2373155 C24.9411765,11.7580352 24.5196415,12.1764706 24.0020214,12.1764706 C23.4813018,12.1764706 23.0628664,11.7549357 23.0628664,11.2373155 C23.0628664,8.31446668 20.6824338,5.93713362 17.7626845,5.93713362 C17.2450643,5.93713362 16.8235294,5.5186982 16.8235294,4.99797857 C16.8235294,4.47725894 17.2450643,4.05882353 17.7626845,4.05882353 Z M19.0154395,0 C24.5199615,0 28.9972311,4.4811849 29,9.98434584 C29,10.4496357 28.6234331,10.8235294 28.1610311,10.8235294 C27.6958602,10.8235294 27.3220622,10.4468662 27.3220622,9.98434584 C27.3220622,5.40345596 23.5951575,1.67836715 19.0154395,1.67836715 C18.5530375,1.67836715 18.1764706,1.3017039 18.1764706,0.839183575 C18.1764706,0.373893672 18.5530375,0 19.0154395,0 Z"></path>
        </g>
    </g>
</svg>