<?xml version="1.0" encoding="UTF-8"?>
<svg width="42px" height="42px" viewBox="0 0 42 42" version="1.1" xmlns="http://www.w3.org/2000/svg" xmlns:xlink="http://www.w3.org/1999/xlink">
    <!-- Generator: Sketch 56.3 (81716) - https://sketch.com -->
    <title>zhankai</title>
    <desc>Created with Sketch.</desc>
    <g id="zhankai" stroke="none" stroke-width="1" fill="none" fill-rule="evenodd">
        <g id="shouqi" transform="translate(21.000000, 20.500000) scale(-1, 1) translate(-21.000000, -20.500000) translate(6.000000, 10.000000)" fill="#00FFF6" fill-rule="nonzero">
            <path d="M13.845002,0 L0,0 L0,1.4 L22.5,1.4 L22.5,0 L13.845002,0 Z M0,9.8 L0,11.2 L22.5,11.2 L22.5,9.8 L8.43445814,9.8 L0,9.8 Z M0,19.6 L13.845002,19.6 L22.5,19.6 L22.5,21 L0,21 L0,19.6 Z M25.5,12.32 L25.5,5.6 L29.099481,10.08 L30,11.2 L29.099481,12.32 L25.5,16.8 L25.5,12.32 Z" id="形状"></path>
        </g>
    </g>
</svg>