<?xml version="1.0" encoding="UTF-8"?>
<svg width="42px" height="42px" viewBox="0 0 42 42" version="1.1" xmlns="http://www.w3.org/2000/svg" xmlns:xlink="http://www.w3.org/1999/xlink">
    <!-- Generator: Sketch 56.3 (81716) - https://sketch.com -->
    <title>weixing</title>
    <desc>Created with Sketch.</desc>
    <g id="weixing" stroke="none" stroke-width="1" fill="none" fill-rule="evenodd">
        <g transform="translate(21.500000, 20.500000) scale(-1, 1) translate(-21.500000, -20.500000) translate(8.000000, 6.000000)" fill="#00FFF6" fill-rule="nonzero" id="路径">
            <path d="M23.6243529,4.23656596 L20.0847861,0.401316847 C19.5909693,-0.133772282 18.8088878,-0.133772282 18.3562906,0.401316847 L13.2114778,5.97597537 C12.7175244,6.5110645 12.7175244,7.3585108 13.2114778,7.84908311 L14.6107621,9.36531688 L13.9109834,10.1234338 L13.4583862,9.63286144 C12.7998273,8.91940927 11.9355795,8.6070521 11.1124149,8.6070521 C10.0011222,7.62575957 8.5607548,7.49206123 7.73745372,8.38402435 C6.91415264,9.27598746 7.03781159,10.836738 7.94327899,12.0410583 C7.94327899,12.9776861 8.23140707,13.8695013 8.88996605,14.5831014 L9.34283624,15.0735258 L8.64305762,15.8316427 L7.24377335,14.315409 C6.74982,13.7801719 5.96787505,13.7801719 5.51514135,14.315409 L0.370465014,19.8900675 C-0.123488338,20.4251566 -0.123488338,21.2726029 0.370465014,21.7631752 L3.91003182,25.5985722 C4.40384868,26.1338093 5.1860666,26.1338093 5.63866381,25.5985722 L10.7833402,20.0239137 C11.2772935,19.4889725 11.2772935,18.6413783 10.7833402,18.150806 L9.58960818,16.8576 L10.2893868,16.0993352 L11.8531402,17.7942278 C12.2649272,16.7682705 12.9233497,15.7426091 13.7465143,14.8507939 C14.5694059,13.9589787 15.5162295,13.2455265 16.4626435,12.7993231 L14.8987537,11.1047263 L15.5983958,10.3464615 L16.7919913,11.6398154 C17.2858081,12.1749045 18.0678896,12.1749045 18.5206233,11.6398154 L23.6652996,6.06515689 C24.1181698,5.57458457 24.1181698,4.72728617 23.6243529,4.23656596 Z"></path>
            <path d="M22.5709906,12.8127287 C22.5709906,12.8127287 22.5284978,12.8127287 22.5284978,12.7624091 C22.4432297,12.7119224 22.4007369,12.6614356 22.31561,12.6112833 L22.2728348,12.6112833 C20.1870144,11.2499801 16.9517693,12.2078908 14.567793,15.0309692 C12.1413239,17.9043671 11.3748996,21.6853562 12.5243243,24.1553617 C12.5668172,24.256168 12.6095924,24.3064876 12.6519441,24.4074611 C12.6519441,24.4074611 12.6519441,24.4577806 12.6945781,24.4577806 C12.7798462,24.6090737 12.8648319,24.7102144 12.9073247,24.8106863 C13.8013688,25.5164977 14.0249363,24.1647935 16.1535319,22.1483328 L20.3070638,17.7990473 C21.9253217,15.3791942 23.4650347,14.0732256 22.8690053,13.0648281"></path>
            <path d="M17.2739725,18.4491653 C16.9165093,18.1752662 16.9165093,17.6735968 17.2292155,17.3546275 L17.3631901,17.2179048 C17.6758963,16.8986332 18.1676305,16.944157 18.4355797,17.2634287 L19.6423886,18.768437 C19.9106342,19.1332325 19.9106342,19.6805771 19.5977798,20 L20,19.5893782 C19.6871456,19.9086499 19.1509508,19.9541737 18.7930429,19.6352045 L17.2739725,18.4491653 Z"></path>
            <path d="M19.5,19 C19.2352049,19 19.0147607,19.2341735 19,19.5 C19,19.7812866 19.2058215,20 19.5,20 C19.7647951,20 20,19.7812866 20,19.5 C19.9855152,19.2030334 19.7647951,19 19.5,19 Z"></path>
            <path d="M21.9763539,19 C21.9763539,20.3291981 21.4697008,21.5690627 20.5000989,22.4995845 C19.5726191,23.4741497 18.3498884,23.9617439 17,23.9617439 L17,26 C20.8793966,26 23.9580755,22.8548406 24,19.0004155 L21.9763539,19 L21.9763539,19 Z"></path>
            <path d="M25.0875593,19.0005887 C25.0875593,23.4355488 21.4618633,27.0755872 17,27.0755872 L17,29 C22.4981502,29 27,24.5232433 27,19 L25.087933,19 L25.0875593,19.0005887 Z"></path>
        </g>
    </g>
</svg>